<?xml version="1.0" standalone="no"?>
<!DOCTYPE svg PUBLIC "-//W3C//DTD SVG 1.1//EN" "http://www.w3.org/Graphics/SVG/1.1/DTD/svg11.dtd" >
<svg xmlns="http://www.w3.org/2000/svg">
<metadata>
Created by FontPrep 20130207 at Wed Jul 27 16:32:49 2016
 By Dan
copyright missing
</metadata>
<defs>
<font id="16f1775fe2c1a1e61dbce264a0dd3092" horiz-adv-x='1024' >
  <font-face 
    font-family="CorporateMono-Bold"
    font-weight="700"
    font-stretch="normal"
    units-per-em="2048"
    panose-1="0 0 8 0 0 0 0 0 0 0"
    ascent="1638"
    descent="-410"
    x-height="1434"
    cap-height="1434"
    bbox="0 0 1158.38 1434"
    underline-thickness="102"
    underline-position="-102"
    unicode-range="U+0020-00A9"
  />
<missing-glyph horiz-adv-x="1024" 
d="M102 1239v-1044l349 522zM164 102h696l-348 523zM573 717l349 -522v1044zM512 809l348 522h-696zM0 0v1434h1024v-1434h-1024z" />
    <glyph glyph-name=".notdef" horiz-adv-x="1024" 
d="M102 1239v-1044l349 522zM164 102h696l-348 523zM573 717l349 -522v1044zM512 809l348 522h-696zM0 0v1434h1024v-1434h-1024z" />
    <glyph glyph-name=".null" horiz-adv-x="0" 
 />
    <glyph glyph-name="nonmarkingreturn" horiz-adv-x="681" 
 />
    <glyph glyph-name="space" unicode=" " horiz-adv-x="1282" 
 />
    <glyph glyph-name="exclam" unicode="!" 
d="M506 268h268v-268h-268v268zM506 537v897h268v-897h-268z" />
    <glyph glyph-name="quotedbl" unicode="&#x22;" 
d="M774 1008v426h268v-426h-268zM238 1008v426h268v-426h-268z" />
    <glyph glyph-name="numbersign" unicode="#" 
d="M729 858h-176v-283h176v283zM997 858v-283h160v-268h-160v-307h-268v307h-176v-307h-268v307h-162v268h162v283h-162v268h162v308h268v-308h176v308h268v-308h160v-268h-160z" />
    <glyph glyph-name="percent" unicode="%" 
d="M928 397q-31 0 -31 -30v-136q0 -33 31 -32q12 0 21 9t9 23v136q0 12 -9 21t-21 9zM928 0q-96 0 -164 68t-68 163v136q0 95 68 163t163 68t163 -68t67 -163v-136q-1 -95 -67 -163t-162 -68zM354 1235q-33 0 -32 -33v-135q0 -12 9 -21q22 -22 45 0q9 9 9 21v135q0 14 -9 24
q-10 9 -22 9zM584 1067q0 -95 -68 -163t-163 -68t-163 68t-67 163v135q0 96 67 164q68 68 164 68t163 -68t67 -164v-135zM123 0l772 1434h262l-770 -1434h-264z" />
    <glyph glyph-name="quotesingle" unicode="'" 
d="M506 1008v426h268v-426h-268z" />
    <glyph glyph-name="parenleft" unicode="(" 
d="M899 0q-213 0 -365 152t-153 366v397q0 215 153 367t365 152v-269q-102 1 -176 -73t-74 -177v-397q0 -102 74 -176t176 -74v-268z" />
    <glyph glyph-name="parenright" unicode=")" 
d="M381 0v268q102 0 176 74t74 176v397q0 103 -74 177t-176 73v269q215 0 367 -152t151 -367v-397q1 -214 -151 -366t-367 -152z" />
    <glyph glyph-name="asterisk" unicode="*" 
d="M1157 582h-192l137 -138l-191 -188l-137 137v-194h-268v194l-137 -137l-189 188l137 138h-194v270h194l-137 137l189 189l137 -138v195h268v-195l137 138l191 -189l-137 -137h192v-270z" />
    <glyph glyph-name="plus" unicode="+" 
d="M1157 582h-383v-383h-268v383h-383v270h383v383h268v-383h383v-270z" />
    <glyph glyph-name="comma" unicode="," 
d="M774 426v-426h-268v426h268z" />
    <glyph glyph-name="hyphen" unicode="-" 
d="M1157 582h-1034v270h1034v-270z" />
    <glyph glyph-name="period" unicode="." 
d="M774 0h-268v268h268v-268z" />
    <glyph glyph-name="slash" unicode="/" 
d="M123 0l725 1434h309l-725 -1434h-309z" />
    <glyph glyph-name="zero" unicode="0" 
d="M641 268q102 0 175 74t73 176v338l-361 -561q58 -27 113 -27zM641 1165q-102 1 -176 -73t-74 -177v-337l361 561q-54 26 -111 26zM640 1434q214 0 366 -152t151 -367v-397q1 -214 -151 -366t-366 -152t-366 152t-151 366v397q0 215 151 367q152 152 366 152z" />
    <glyph glyph-name="one" unicode="1" 
d="M1157 268v-268h-1034v268h383v897h-383v269h651v-1166h383z" />
    <glyph glyph-name="two" unicode="2" 
d="M391 1008h-268q0 176 125 301t301 125h184q186 0 311 -138q121 -129 114 -305t-138 -295l-463 -428h600v-268h-1034v231l717 662q47 45 50 109t-43 114q-46 49 -114 49h-184q-66 1 -112 -45t-46 -112z" />
    <glyph glyph-name="three" unicode="3" 
d="M1157 1011q0 -173 -115 -294q115 -121 115 -294t-124 -298t-300 -125h-184q-176 0 -301 125t-125 301h268q0 -66 46 -112t112 -46h184q66 0 111 46t45 112t-45 111t-111 45h-184v270h184q66 0 111 45t45 111t-45 112t-111 45h-184q-66 0 -112 -46t-46 -111h-268
q0 176 125 301t301 125h184q176 0 300 -125t124 -298z" />
    <glyph glyph-name="four" unicode="4" 
d="M705 559v340l-228 -340h228zM973 0h-268v291h-582v221l616 922h234v-875h184v-268h-184v-291z" />
    <glyph glyph-name="five" unicode="5" 
d="M391 426q0 -66 46 -112t112 -46h184q66 0 111 46t45 112v82q0 66 -46 112t-110 46h-610v768h1034v-269h-766v-231h342q174 0 299 -125t125 -301v-82q0 -176 -124 -301t-300 -125h-184q-176 0 -301 125t-125 301h268z" />
    <glyph glyph-name="six" unicode="6" 
d="M549 666q-66 0 -112 -46t-46 -112v-82q0 -66 46 -112t112 -46h184q66 0 111 46t45 112v82q0 66 -46 112t-110 46h-184zM889 1008q0 66 -45 112t-111 45h-184q-66 0 -112 -46t-46 -111v-105q82 31 158 31h184q174 0 299 -125t125 -301v-82q0 -176 -124 -301t-300 -125
h-184q-176 0 -301 125t-125 301v582q0 176 125 301t301 125h184q176 0 300 -125t124 -301h-268z" />
    <glyph glyph-name="seven" unicode="7" 
d="M123 1165v269h1034v-213l-717 -1221h-317l682 1165h-682z" />
    <glyph glyph-name="eight" unicode="8" 
d="M549 268h184q66 0 111 46t45 112t-45 111t-111 45h-184q-66 0 -112 -45t-46 -111t46 -112t112 -46zM733 1165h-184q-66 0 -112 -46q-46 -45 -46 -111t46 -111t112 -45h184q66 0 111 45t45 111t-45 112t-111 45zM1157 1011q0 -173 -115 -294q115 -121 115 -294t-124 -298
t-300 -125h-184q-176 0 -301 125t-125 298t115 294q-115 121 -115 294t125 298t301 125h184q176 0 300 -125t124 -298z" />
    <glyph glyph-name="nine" unicode="9" 
d="M733 768q63 0 110 46q46 46 46 112v82q0 66 -45 112t-111 45h-184q-66 0 -112 -46t-46 -111v-82q0 -66 46 -112t112 -46h184zM391 426q0 -66 46 -112t112 -46h184q66 0 111 46t45 112v104q-82 -31 -156 -30h-184q-176 0 -301 125t-125 301v82q0 176 125 301t301 125h184
q176 0 300 -125t124 -301v-582q0 -176 -124 -301t-300 -125h-184q-176 0 -301 125t-125 301h268z" />
    <glyph glyph-name="colon" unicode=":" 
d="M774 158h-268v268h268v-268zM774 1008h-268v268h268v-268z" />
    <glyph glyph-name="semicolon" unicode=";" 
d="M774 426v-426h-268v426h268zM774 1008h-268v268h268v-268z" />
    <glyph glyph-name="question" unicode="?" 
d="M506 268h268v-268h-268v268zM549 1434h182q176 0 301 -125t125 -301q0 -123 -64 -226q-65 -102 -175 -155l-109 -54q-35 -35 -35 -98h-268q0 109 52 204t132 134l113 55q86 43 86 140q0 66 -46 112t-112 45h-182q-66 0 -112 -46t-46 -111h-268q0 176 125 301t301 125z
" />
    <glyph glyph-name="at" unicode="@" 
d="M539 625q-1 -41 29 -72t72 -31t72 31t29 72v184q0 41 -29 72q-30 31 -72 31t-72 -32q-30 -30 -29 -71v-184zM640 1327q214 -1 366 -153t151 -365v-229q0 -86 -60 -146q-59 -60 -147 -61q-88 0 -147 59q-70 -59 -168 -59q-98 -1 -173 73t-75 179v184q0 104 75 178t178 74
t178 -74t75 -178v-229q0 -23 16 -40q16 -18 40 -18t41 18t18 40v229q0 151 -109 259t-261 108t-258 -108q-108 -108 -108 -259v-184q0 -151 108 -259t259 -108v-152q-213 0 -365 153t-151 366v184q0 213 151 366q152 152 366 152z" />
    <glyph glyph-name="A" unicode="A" 
d="M748 483l-107 396l-106 -396h213zM819 215h-358l-58 -215h-280l401 1434h232l401 -1434h-278z" />
    <glyph glyph-name="B" unicode="B" 
d="M391 268h342q66 0 111 46t45 112t-45 111t-111 45h-342v-314zM391 852h342q66 0 111 45t45 111t-45 112t-111 45h-342v-313zM1157 1011q0 -173 -115 -294q115 -121 115 -294t-124 -298t-300 -125h-610v1434h610q176 0 300 -125t124 -298z" />
    <glyph glyph-name="C" unicode="C" 
d="M1157 518q1 -214 -151 -366t-366 -152t-366 152t-151 366v397q0 215 151 367q152 152 366 152t366 -152t151 -367h-268q0 103 -73 177t-175 74t-176 -74t-74 -177v-397q0 -102 74 -176t176 -74t175 74t73 176h268z" />
    <glyph glyph-name="D" unicode="D" 
d="M391 268h250q102 0 175 74t73 176v397q0 103 -73 177t-175 73h-250v-897zM123 0v1434h518q213 0 365 -152t151 -367v-397q1 -214 -151 -366t-365 -152h-518z" />
    <glyph glyph-name="E" unicode="E" 
d="M391 1165v-313h766v-270h-766v-314h766v-268h-1034v1434h1034v-269h-766z" />
    <glyph glyph-name="F" unicode="F" 
d="M391 1165v-313h766v-270h-766v-582h-268v1434h1034v-269h-766z" />
    <glyph glyph-name="G" unicode="G" 
d="M641 768h516v-768h-268v63q-115 -63 -248 -63q-215 0 -367 152t-151 366v397q0 215 151 367q152 152 366 152t366 -152t151 -367h-268q0 103 -73 177t-175 74t-176 -74t-74 -177v-397q0 -102 74 -176t174 -74t172 68t78 164h-248v268z" />
    <glyph glyph-name="H" unicode="H" 
d="M1157 1434v-1434h-268v582h-498v-582h-268v1434h268v-582h498v582h268z" />
    <glyph glyph-name="I" unicode="I" 
d="M774 1165v-897h383v-268h-1034v268h383v897h-383v269h1034v-269h-383z" />
    <glyph glyph-name="J" unicode="J" 
d="M123 518h268q0 -102 74 -176t176 -74t175 74t73 176v916h268v-916q1 -214 -151 -366t-366 -152t-366 152t-151 366z" />
    <glyph glyph-name="K" unicode="K" 
d="M391 0h-268v1434h268v-525l410 525h356l-424 -531l424 -903h-301l-311 668l-154 -193v-475z" />
    <glyph glyph-name="L" unicode="L" 
d="M1157 0h-1034v1434h268v-1166h766v-268z" />
    <glyph glyph-name="M" unicode="M" 
d="M1157 0h-268v444l-133 -444h-230l-135 444v-444h-268v1434h250l268 -887l268 887h248v-1434z" />
    <glyph glyph-name="N" unicode="N" 
d="M1157 0h-239l-527 868v-868h-268v1434h239l527 -869v869h268v-1434z" />
    <glyph glyph-name="O" unicode="O" 
d="M641 1165q-102 1 -176 -73t-74 -177v-397q0 -102 74 -176t176 -74t175 74t73 176v397q0 102 -73 176t-175 74zM1157 518q1 -214 -151 -366t-366 -152t-366 152t-151 366v397q0 215 151 367q152 152 366 152t366 -152t151 -367v-397z" />
    <glyph glyph-name="P" unicode="P" 
d="M391 852h342q66 0 111 45t45 111t-45 112t-111 45h-342v-313zM391 0h-268v1434h610q176 0 300 -125t124 -301t-125 -301t-299 -125h-342v-582z" />
    <glyph glyph-name="Q" unicode="Q" 
d="M889 518v397q0 103 -73 177t-175 74t-176 -74t-74 -177v-397q0 -102 74 -176t176 -74q27 0 53 6l-223 224l188 190l224 -223q6 25 6 53zM1157 915v-397q0 -137 -67 -260l67 -68l-188 -190l-70 70q-117 -70 -258 -70q-215 0 -367 152t-151 366v397q0 215 151 367
q152 152 366 152t366 -152t151 -367z" />
    <glyph glyph-name="R" unicode="R" 
d="M391 852h342q66 0 111 45t45 111t-45 112t-111 45h-342v-313zM1157 1008q0 -125 -67 -230q-68 -104 -179 -155l246 -623h-293l-227 582h-246v-582h-268v1434h610q176 0 300 -125t124 -301z" />
    <glyph glyph-name="S" unicode="S" 
d="M391 426q0 -66 46 -112t112 -46h184q66 0 111 46t45 112t-45 111t-111 45h-184q-176 0 -301 125t-125 301t125 301t301 125h184q176 0 300 -125t124 -301h-268q0 66 -45 112t-111 45h-184q-66 0 -112 -46q-46 -45 -46 -111t46 -111t112 -45h184q174 0 299 -125t125 -301
t-124 -301t-300 -125h-184q-176 0 -301 125t-125 301h268z" />
    <glyph glyph-name="T" unicode="T" 
d="M1157 1165h-383v-1165h-268v1165h-383v269h1034v-269z" />
    <glyph glyph-name="U" unicode="U" 
d="M1157 518q1 -214 -151 -366t-366 -152t-366 152t-151 366v916h268v-916q0 -102 74 -176t176 -74t175 74t73 176v916h268v-916z" />
    <glyph glyph-name="V" unicode="V" 
d="M756 0h-232l-401 1434h280l238 -879l238 879h278z" />
    <glyph glyph-name="W" unicode="W" 
d="M1157 0h-242l-274 485l-274 -485h-244v1434h268v-844l148 262h202l148 -262v844h268v-1434z" />
    <glyph glyph-name="X" unicode="X" 
d="M795 717l362 -717h-309l-207 412l-209 -412h-309l362 717l-362 717h309l209 -412l207 412h309z" />
    <glyph glyph-name="Y" unicode="Y" 
d="M774 0h-268v567l-383 867h301l217 -504l215 504h301l-383 -867v-567z" />
    <glyph glyph-name="Z" unicode="Z" 
d="M1157 0h-1034v223l674 942h-674v269h1034v-224l-672 -942h672v-268z" />
    <glyph glyph-name="bracketleft" unicode="[" 
d="M854 1434v-269q-66 0 -112 -46t-46 -111v-582q0 -66 46 -112t112 -46v-268q-176 0 -301 125t-125 301v582q0 176 125 301t301 125z" />
    <glyph glyph-name="backslash" unicode="\" 
d="M1157 0h-309l-725 1434h309z" />
    <glyph glyph-name="bracketright" unicode="]" 
d="M428 1434q176 0 301 -125t125 -301v-582q0 -176 -125 -301t-301 -125v268q66 0 112 46t46 112v582q0 66 -46 112t-112 45v269z" />
    <glyph glyph-name="underscore" unicode="_" 
d="M1157 0h-1034v268h1034v-268z" />
    <glyph glyph-name="a" unicode="a" 
d="M748 483l-107 396l-106 -396h213zM819 215h-358l-58 -215h-280l401 1434h232l401 -1434h-278z" />
    <glyph glyph-name="b" unicode="b" 
d="M391 268h342q66 0 111 46t45 112t-45 111t-111 45h-342v-314zM391 852h342q66 0 111 45t45 111t-45 112t-111 45h-342v-313zM1157 1011q0 -173 -115 -294q115 -121 115 -294t-124 -298t-300 -125h-610v1434h610q176 0 300 -125t124 -298z" />
    <glyph glyph-name="c" unicode="c" 
d="M1157 518q1 -214 -151 -366t-366 -152t-366 152t-151 366v397q0 215 151 367q152 152 366 152t366 -152t151 -367h-268q0 103 -73 177t-175 74t-176 -74t-74 -177v-397q0 -102 74 -176t176 -74t175 74t73 176h268z" />
    <glyph glyph-name="d" unicode="d" 
d="M391 268h250q102 0 175 74t73 176v397q0 103 -73 177t-175 73h-250v-897zM123 0v1434h518q213 0 365 -152t151 -367v-397q1 -214 -151 -366t-365 -152h-518z" />
    <glyph glyph-name="e" unicode="e" 
d="M391 1165v-313h766v-270h-766v-314h766v-268h-1034v1434h1034v-269h-766z" />
    <glyph glyph-name="f" unicode="f" 
d="M391 1165v-313h766v-270h-766v-582h-268v1434h1034v-269h-766z" />
    <glyph glyph-name="g" unicode="g" 
d="M641 768h516v-768h-268v63q-115 -63 -248 -63q-215 0 -367 152t-151 366v397q0 215 151 367q152 152 366 152t366 -152t151 -367h-268q0 103 -73 177t-175 74t-176 -74t-74 -177v-397q0 -102 74 -176t174 -74t172 68t78 164h-248v268z" />
    <glyph glyph-name="h" unicode="h" 
d="M1157 1434v-1434h-268v582h-498v-582h-268v1434h268v-582h498v582h268z" />
    <glyph glyph-name="i" unicode="i" 
d="M774 1165v-897h383v-268h-1034v268h383v897h-383v269h1034v-269h-383z" />
    <glyph glyph-name="j" unicode="j" 
d="M123 518h268q0 -102 74 -176t176 -74t175 74t73 176v916h268v-916q1 -214 -151 -366t-366 -152t-366 152t-151 366z" />
    <glyph glyph-name="k" unicode="k" 
d="M391 0h-268v1434h268v-525l410 525h356l-424 -531l424 -903h-301l-311 668l-154 -193v-475z" />
    <glyph glyph-name="l" unicode="l" 
d="M1157 0h-1034v1434h268v-1166h766v-268z" />
    <glyph glyph-name="m" unicode="m" 
d="M1157 0h-268v444l-133 -444h-230l-135 444v-444h-268v1434h250l268 -887l268 887h248v-1434z" />
    <glyph glyph-name="n" unicode="n" 
d="M1157 0h-239l-527 868v-868h-268v1434h239l527 -869v869h268v-1434z" />
    <glyph glyph-name="o" unicode="o" 
d="M641 1165q-102 1 -176 -73t-74 -177v-397q0 -102 74 -176t176 -74t175 74t73 176v397q0 102 -73 176t-175 74zM1157 518q1 -214 -151 -366t-366 -152t-366 152t-151 366v397q0 215 151 367q152 152 366 152t366 -152t151 -367v-397z" />
    <glyph glyph-name="p" unicode="p" 
d="M391 852h342q66 0 111 45t45 111t-45 112t-111 45h-342v-313zM391 0h-268v1434h610q176 0 300 -125t124 -301t-125 -301t-299 -125h-342v-582z" />
    <glyph glyph-name="q" unicode="q" 
d="M889 518v397q0 103 -73 177t-175 74t-176 -74t-74 -177v-397q0 -102 74 -176t176 -74q27 0 53 6l-223 224l188 190l224 -223q6 25 6 53zM1157 915v-397q0 -137 -67 -260l67 -68l-188 -190l-70 70q-117 -70 -258 -70q-215 0 -367 152t-151 366v397q0 215 151 367
q152 152 366 152t366 -152t151 -367z" />
    <glyph glyph-name="r" unicode="r" 
d="M391 852h342q66 0 111 45t45 111t-45 112t-111 45h-342v-313zM1157 1008q0 -125 -67 -230q-68 -104 -179 -155l246 -623h-293l-227 582h-246v-582h-268v1434h610q176 0 300 -125t124 -301z" />
    <glyph glyph-name="s" unicode="s" 
d="M391 426q0 -66 46 -112t112 -46h184q66 0 111 46t45 112t-45 111t-111 45h-184q-176 0 -301 125t-125 301t125 301t301 125h184q176 0 300 -125t124 -301h-268q0 66 -45 112t-111 45h-184q-66 0 -112 -46q-46 -45 -46 -111t46 -111t112 -45h184q174 0 299 -125t125 -301
t-124 -301t-300 -125h-184q-176 0 -301 125t-125 301h268z" />
    <glyph glyph-name="t" unicode="t" 
d="M1157 1165h-383v-1165h-268v1165h-383v269h1034v-269z" />
    <glyph glyph-name="u" unicode="u" 
d="M1157 518q1 -214 -151 -366t-366 -152t-366 152t-151 366v916h268v-916q0 -102 74 -176t176 -74t175 74t73 176v916h268v-916z" />
    <glyph glyph-name="v" unicode="v" 
d="M756 0h-232l-401 1434h280l238 -879l238 879h278z" />
    <glyph glyph-name="w" unicode="w" 
d="M1157 0h-242l-274 485l-274 -485h-244v1434h268v-844l148 262h202l148 -262v844h268v-1434z" />
    <glyph glyph-name="x" unicode="x" 
d="M795 717l362 -717h-309l-207 412l-209 -412h-309l362 717l-362 717h309l209 -412l207 412h309z" />
    <glyph glyph-name="y" unicode="y" 
d="M774 0h-268v567l-383 867h301l217 -504l215 504h301l-383 -867v-567z" />
    <glyph glyph-name="z" unicode="z" 
d="M1157 0h-1034v223l674 942h-674v269h1034v-224l-672 -942h672v-268z" />
    <glyph glyph-name="copyright" unicode="&#xa9;" 
d="M641 373q-104 -1 -178 73t-74 179v184q0 104 74 178t178 74t178 -74t74 -178h-152q0 41 -29 72q-30 31 -72 31t-72 -32q-30 -30 -29 -71v-184q-1 -41 29 -72t72 -31t72 31t29 72h152q0 -104 -74 -178t-178 -74zM641 1176q-153 0 -261 -108t-108 -259v-184
q0 -151 109 -259t261 -108t258 108q108 108 108 259v184q0 151 -108 259t-259 108zM1157 625q1 -213 -151 -366t-366 -153t-366 153t-151 366v184q0 213 151 366q152 153 366 153t366 -154q152 -152 151 -365v-184z" />
  </font>
</defs>
</svg>
