<?xml version="1.0" standalone="no"?>
<!DOCTYPE svg PUBLIC "-//W3C//DTD SVG 1.1//EN" "http://www.w3.org/Graphics/SVG/1.1/DTD/svg11.dtd" >
<svg xmlns="http://www.w3.org/2000/svg">
<metadata>
Created by FontPrep 20130207 at Wed Jul 27 16:32:49 2016
 By Dan
copyright missing
</metadata>
<defs>
<font id="8ac969d90da15fb127ae553d474c0b3f" horiz-adv-x='1024' >
  <font-face 
    font-family="CorporateMono-Light"
    font-weight="300"
    font-stretch="normal"
    units-per-em="2048"
    panose-1="0 0 4 0 0 0 0 0 0 0"
    ascent="1638"
    descent="-410"
    x-height="1434"
    cap-height="1434"
    bbox="0 0 1116.31 1434"
    underline-thickness="102"
    underline-position="-102"
    unicode-range="U+0020-00A9"
  />
<missing-glyph horiz-adv-x="1024" 
d="M102 1239v-1044l349 522zM164 102h696l-348 523zM573 717l349 -522v1044zM512 809l348 522h-696zM0 0v1434h1024v-1434h-1024z" />
    <glyph glyph-name=".notdef" horiz-adv-x="1024" 
d="M102 1239v-1044l349 522zM164 102h696l-348 523zM573 717l349 -522v1044zM512 809l348 522h-696zM0 0v1434h1024v-1434h-1024z" />
    <glyph glyph-name=".null" horiz-adv-x="0" 
 />
    <glyph glyph-name="nonmarkingreturn" horiz-adv-x="681" 
 />
    <glyph glyph-name="space" unicode=" " 
 />
    <glyph glyph-name="exclam" unicode="!" 
d="M692 143v-143h-145v143h145zM692 1434v-1039h-145v1039h145z" />
    <glyph glyph-name="quotedbl" unicode="&#x22;" 
d="M692 1038v396h144v-396h-144zM403 1038v396h144v-396h-144z" />
    <glyph glyph-name="numbersign" unicode="#" 
d="M762 928h-285v-422h285v422zM905 928v-422h211v-144h-211v-362h-143v362h-285v-362h-145v362h-209v144h209v422h-209v143h209v363h145v-363h285v363h143v-363h211v-143h-211z" />
    <glyph glyph-name="percent" unicode="%" 
d="M971 315q1 17 -13 31t-33 14t-33 -13t-13 -32v-125q0 -18 13 -32q12 -14 32 -14t33 14t14 32v125zM925 0q-79 0 -135 56t-57 134v125q1 79 57 135t135 56t135 -56t56 -135v-125q0 -78 -56 -134t-135 -56zM314 1290q-19 0 -33 -14t-15 -33v-125q0 -18 14 -32t34 -13
q19 0 33 13q13 13 13 32v125q0 18 -13 33q-14 14 -33 14zM504 1118q0 -78 -56 -134t-134 -56q-79 0 -135 56t-56 134v125q0 78 56 134q56 57 135 57q78 0 134 -56t56 -135v-125zM948 1434h168l-827 -1434h-166z" />
    <glyph glyph-name="quotesingle" unicode="'" 
d="M547 1038v396h145v-396h-145z" />
    <glyph glyph-name="parenleft" unicode="(" 
d="M866 0q-205 0 -350 145t-145 351v442q0 205 145 350t350 146v-144q-143 0 -246 -103t-104 -249v-442q0 -144 104 -248t246 -105v-143z" />
    <glyph glyph-name="parenright" unicode=")" 
d="M371 143q145 -1 249 103t103 250v442q0 144 -103 248t-249 104v144q205 0 350 -146t145 -350v-442q0 -204 -145 -350t-350 -146v143z" />
    <glyph glyph-name="asterisk" unicode="*" 
d="M1116 643h-321l227 -227l-102 -101l-230 228v-324h-143v324l-228 -228l-102 101l227 227h-321v145h321l-227 230l102 100l228 -227v321h143v-321l230 227l102 -100l-227 -230h321v-145z" />
    <glyph glyph-name="plus" unicode="+" 
d="M1116 643h-426v-424h-143v424h-424v145h424v424h143v-424h426v-145z" />
    <glyph glyph-name="comma" unicode="," 
d="M692 395v-395h-145v395h145z" />
    <glyph glyph-name="hyphen" unicode="-" 
d="M1116 788v-143h-993v143h993z" />
    <glyph glyph-name="period" unicode="." 
d="M692 143v-143h-145v143h145z" />
    <glyph glyph-name="slash" unicode="/" 
d="M948 1434h168l-827 -1434h-166z" />
    <glyph glyph-name="zero" unicode="0" 
d="M971 496v442q0 78 -31 145l-549 -856q100 -84 236 -84t240 104t104 249zM266 938v-442q0 -74 33 -146l547 856q-100 84 -236 84t-240 -104t-104 -248zM618 1434q206 0 352 -146t146 -350v-442q0 -204 -146 -350t-352 -146t-350 145q-145 145 -145 351v442q0 204 145 350
t350 146z" />
    <glyph glyph-name="one" unicode="1" 
d="M1116 143v-143h-993v143h424v1147h-424v144h569v-1291h424z" />
    <glyph glyph-name="two" unicode="2" 
d="M266 1038h-143q0 164 116 280t279 116h203q170 0 291 -127q110 -121 104 -284t-127 -273l-657 -607h784v-143h-993v147l768 709q76 70 80 173t-69 182t-181 79h-203q-104 0 -178 -74t-74 -178z" />
    <glyph glyph-name="three" unicode="3" 
d="M1116 395q0 -163 -116 -279t-279 -116h-203q-164 0 -280 116t-115 279h143q0 -104 74 -178t178 -74h203q102 0 176 74t74 177t-74 177t-176 74h-203v143h203q102 0 176 74t74 177t-74 177t-176 74h-203q-104 0 -178 -74t-74 -178h-143q0 164 116 280t279 116h203
q163 0 279 -116t116 -280q0 -200 -168 -321q168 -121 168 -322z" />
    <glyph glyph-name="four" unicode="4" 
d="M766 467v702l-469 -702h469zM909 322v-322h-143v322h-643v145l645 967h141v-967h207v-145h-207z" />
    <glyph glyph-name="five" unicode="5" 
d="M266 395q0 -104 74 -178t178 -74h203q102 0 176 74t74 178v90q0 103 -74 177t-176 73h-598v699h993v-144h-850v-409h455q163 0 279 -117t116 -279v-90q0 -163 -116 -279t-279 -116h-203q-164 0 -280 116t-115 279h143z" />
    <glyph glyph-name="six" unicode="6" 
d="M266 395q0 -104 74 -178t178 -74h203q102 0 176 74t74 178v90q0 103 -74 177t-176 73h-203q-104 1 -178 -73t-74 -177v-90zM971 1038q0 104 -74 178t-176 74h-203q-104 0 -178 -74t-74 -178v-247q113 90 252 90h203q163 0 279 -117t116 -279v-90q0 -163 -116 -279
t-279 -116h-203q-164 0 -280 116t-115 279v643q0 164 116 280t279 116h203q163 0 279 -116t116 -280h-145z" />
    <glyph glyph-name="seven" unicode="7" 
d="M1116 1434v-136l-823 -1298h-170l817 1290h-817v144h993z" />
    <glyph glyph-name="eight" unicode="8" 
d="M518 143h203q102 0 176 74t74 177t-74 177t-176 74h-203q-104 0 -178 -74t-74 -177t74 -177t178 -74zM721 1290h-203q-104 0 -178 -74t-74 -176q0 -104 74 -178t178 -74h203q102 0 176 74t74 177t-74 177t-176 74zM1116 395q0 -163 -116 -279t-279 -116h-203
q-164 0 -280 116t-115 279q0 99 45 183t123 139q-78 55 -123 139t-45 182q0 164 116 280t279 116h203q163 0 279 -116t116 -280q0 -200 -168 -321q168 -121 168 -322z" />
    <glyph glyph-name="nine" unicode="9" 
d="M971 1038q0 104 -74 178t-176 74h-203q-104 0 -178 -74t-74 -178v-90q0 -102 74 -176t178 -74h203q102 0 176 74t74 176v90zM266 395q0 -104 74 -178t178 -74h203q102 0 176 74t74 178v248q-111 -90 -250 -90h-203q-164 0 -280 116t-115 279v90q0 164 116 280t279 116
h203q163 0 279 -116t116 -280v-643q0 -163 -116 -279t-279 -116h-203q-164 0 -280 116t-115 279h143z" />
    <glyph glyph-name="colon" unicode=":" 
d="M692 395v-145h-145v145h145zM547 1038v146h145v-146h-145z" />
    <glyph glyph-name="semicolon" unicode=";" 
d="M692 395v-395h-145v395h145zM547 1038v146h145v-146h-145z" />
    <glyph glyph-name="question" unicode="?" 
d="M692 0h-145v143h145v-143zM266 1038h-143q0 164 116 280t279 116h203q163 0 279 -116t116 -280q0 -115 -59 -209t-162 -145l-123 -59q-28 -15 -54 -67t-26 -107h-145q0 96 46 183t116 122l127 59q63 33 100 93t37 130q0 104 -74 178t-178 74h-203q-104 0 -178 -74
t-74 -178z" />
    <glyph glyph-name="at" unicode="@" 
d="M620 530q40 0 68 29t29 70v176q0 41 -29 69q-28 28 -68 29q-40 0 -69 -29t-29 -69v-176q0 -41 29 -70t69 -29zM620 1300q206 0 351 -145t145 -350v-219q0 -82 -58 -140t-139 -59q-81 0 -143 57q-72 -57 -164 -57t-163 71q-72 71 -72 171v176q0 100 72 171t172 71t171 -71
t70 -171v-219q0 -23 16 -39q16 -17 40 -17q22 0 38 16t17 40v219q1 145 -103 249t-249 103q-145 0 -249 -103t-106 -249v-176q0 -145 104 -249t251 -104v-143q-207 -1 -353 145t-145 351v176q0 205 145 350q146 145 352 145z" />
    <glyph glyph-name="A" unicode="A" 
d="M813 510l-195 655l-194 -655h389zM856 367h-473l-111 -367h-149l426 1434h141l426 -1434h-151z" />
    <glyph glyph-name="B" unicode="B" 
d="M266 143h455q102 0 176 74t74 177t-74 177t-176 74h-455v-502zM266 788h455q102 0 176 74t74 177t-74 177t-176 74h-455v-502zM1116 395q0 -163 -116 -279t-279 -116h-598v1434h598q163 0 279 -116t116 -280q0 -200 -168 -321q168 -121 168 -322z" />
    <glyph glyph-name="C" unicode="C" 
d="M1116 496q0 -204 -146 -350t-352 -146t-350 145q-145 145 -145 351v442q0 205 145 350q145 146 350 146q206 0 352 -146t146 -350h-145q1 144 -103 248t-248 104t-249 -104q-104 -104 -105 -248v-442q0 -144 104 -248t249 -104q143 0 247 102q104 104 105 250h145z" />
    <glyph glyph-name="D" unicode="D" 
d="M266 1290v-1147h352q144 -1 248 103t105 250v442q1 144 -103 248t-250 104h-352zM123 0v1434h495q206 0 352 -146t146 -350v-442q0 -204 -146 -350t-352 -146h-495z" />
    <glyph glyph-name="E" unicode="E" 
d="M266 1290v-502h850v-143h-850v-502h850v-143h-993v1434h993v-144h-850z" />
    <glyph glyph-name="F" unicode="F" 
d="M266 1290v-502h850v-143h-850v-645h-143v1434h993v-144h-850z" />
    <glyph glyph-name="G" unicode="G" 
d="M618 698h498v-698h-145v147q-143 -147 -351 -147t-352 145q-145 145 -145 351v442q0 205 145 350q145 146 350 146q206 0 352 -146t146 -350h-145q1 144 -103 248t-248 104t-249 -104q-104 -104 -105 -248v-442q0 -144 104 -248t249 -104q143 0 247 102q104 104 105 250
v57h-353v145z" />
    <glyph glyph-name="H" unicode="H" 
d="M1116 1434v-1434h-145v645h-705v-645h-143v1434h143v-646h705v646h145z" />
    <glyph glyph-name="I" unicode="I" 
d="M692 1290v-1147h424v-143h-993v143h424v1147h-424v144h993v-144h-424z" />
    <glyph glyph-name="J" unicode="J" 
d="M266 496q0 -144 104 -248t249 -104q143 0 247 102q104 104 105 250v938h145v-938q0 -204 -146 -350t-352 -146t-350 145q-145 145 -145 351h143z" />
    <glyph glyph-name="K" unicode="K" 
d="M266 0h-143v1434h143v-746l658 746h192l-467 -531l467 -903h-162l-407 786l-281 -317v-469z" />
    <glyph glyph-name="L" unicode="L" 
d="M1116 143v-143h-993v1434h143v-1291h850z" />
    <glyph glyph-name="M" unicode="M" 
d="M1116 1434v-1434h-145v930l-281 -930h-141l-283 930v-930h-143v1434h143l352 -1170l355 1170h143z" />
    <glyph glyph-name="N" unicode="N" 
d="M1116 1434v-1434h-147l-703 1159v-1159h-143v1434h147l701 -1160v1160h145z" />
    <glyph glyph-name="O" unicode="O" 
d="M971 938q0 144 -104 248t-248 104t-248 -104t-105 -248v-442q0 -144 104 -248t249 -104q143 0 247 102q104 104 105 250v442zM618 0q-205 0 -350 145t-145 351v442q0 205 145 350q145 146 350 146q206 0 352 -146t146 -350v-442q0 -205 -146 -351q-147 -145 -352 -145z
" />
    <glyph glyph-name="P" unicode="P" 
d="M266 1290v-502h455q102 0 176 74t74 177t-74 177t-176 74h-455zM266 645v-645h-143v1434h598q163 0 279 -116t116 -279t-116 -279t-279 -115h-455z" />
    <glyph glyph-name="Q" unicode="Q" 
d="M971 938q1 144 -103 248t-248 104t-249 -104q-104 -104 -105 -248v-442q0 -144 104 -248t248 -105q102 0 193 60l-362 362l100 103l364 -365q57 86 58 193v442zM1116 938v-442q0 -164 -98 -295l96 -99l-102 -102l-97 98q-135 -98 -297 -98q-205 0 -350 145t-145 351v442
q0 205 145 350q145 146 350 146q206 0 352 -146t146 -350z" />
    <glyph glyph-name="R" unicode="R" 
d="M266 788h455q102 0 176 74t74 177t-74 177t-176 74h-455v-502zM721 1434q163 0 279 -116t116 -264t-82 -254q-82 -105 -209 -141l291 -659h-158l-284 645h-408v-645h-143v1434h598z" />
    <glyph glyph-name="S" unicode="S" 
d="M518 0q-164 0 -280 116t-115 279h143q0 -104 74 -178t178 -74h203q102 0 176 74t74 177t-74 177t-176 74h-203q-164 0 -280 115q-116 114 -115 278q0 164 116 280t279 116h203q163 0 279 -116t116 -280h-145q0 104 -74 178t-176 74h-203q-104 0 -178 -74t-74 -176
q0 -104 74 -178t178 -74h203q163 0 279 -116t116 -278t-116 -278t-279 -116h-203z" />
    <glyph glyph-name="T" unicode="T" 
d="M1116 1290h-424v-1290h-145v1290h-424v144h993v-144z" />
    <glyph glyph-name="U" unicode="U" 
d="M618 0q-205 0 -350 145t-145 351v938h143v-938q0 -144 104 -248t249 -104q143 0 247 102q104 104 105 250v938h145v-938q0 -205 -146 -351q-147 -145 -352 -145z" />
    <glyph glyph-name="V" unicode="V" 
d="M123 1434h149l346 -1166l347 1166h151l-426 -1434h-141z" />
    <glyph glyph-name="W" unicode="W" 
d="M1116 1434v-1434h-149l-349 614l-348 -614h-147v1434h143v-1147l285 501h135l285 -501v1147h145z" />
    <glyph glyph-name="X" unicode="X" 
d="M702 717l414 -717h-168l-330 573l-329 -573h-166l414 717l-414 717h166l329 -574l330 574h168z" />
    <glyph glyph-name="Y" unicode="Y" 
d="M692 0h-145v608l-424 826h162l333 -650l336 650h162l-424 -826v-608z" />
    <glyph glyph-name="Z" unicode="Z" 
d="M1116 143v-143h-993v145l817 1145h-817v144h993v-146l-817 -1145h817z" />
    <glyph glyph-name="bracketleft" unicode="[" 
d="M817 1290q-104 0 -178 -74t-74 -178v-643q0 -104 74 -178t178 -74v-143q-163 0 -279 116t-116 279v643q0 164 116 280t279 116v-144z" />
    <glyph glyph-name="backslash" unicode="\" 
d="M289 1434l827 -1434h-168l-825 1434h166z" />
    <glyph glyph-name="bracketright" unicode="]" 
d="M422 1290v144q164 0 280 -116t115 -280v-643q0 -163 -116 -279t-279 -116v143q102 0 176 74t74 178v643q0 104 -74 178t-176 74z" />
    <glyph glyph-name="underscore" unicode="_" 
d="M1116 143v-143h-993v143h993z" />
    <glyph glyph-name="a" unicode="a" 
d="M813 510l-195 655l-194 -655h389zM856 367h-473l-111 -367h-149l426 1434h141l426 -1434h-151z" />
    <glyph glyph-name="b" unicode="b" 
d="M266 143h455q102 0 176 74t74 177t-74 177t-176 74h-455v-502zM266 788h455q102 0 176 74t74 177t-74 177t-176 74h-455v-502zM1116 395q0 -163 -116 -279t-279 -116h-598v1434h598q163 0 279 -116t116 -280q0 -200 -168 -321q168 -121 168 -322z" />
    <glyph glyph-name="c" unicode="c" 
d="M1116 496q0 -204 -146 -350t-352 -146t-350 145q-145 145 -145 351v442q0 205 145 350q145 146 350 146q206 0 352 -146t146 -350h-145q1 144 -103 248t-248 104t-249 -104q-104 -104 -105 -248v-442q0 -144 104 -248t249 -104q143 0 247 102q104 104 105 250h145z" />
    <glyph glyph-name="d" unicode="d" 
d="M266 1290v-1147h352q144 -1 248 103t105 250v442q1 144 -103 248t-250 104h-352zM123 0v1434h495q206 0 352 -146t146 -350v-442q0 -204 -146 -350t-352 -146h-495z" />
    <glyph glyph-name="e" unicode="e" 
d="M266 1290v-502h850v-143h-850v-502h850v-143h-993v1434h993v-144h-850z" />
    <glyph glyph-name="f" unicode="f" 
d="M266 1290v-502h850v-143h-850v-645h-143v1434h993v-144h-850z" />
    <glyph glyph-name="g" unicode="g" 
d="M618 698h498v-698h-145v147q-143 -147 -351 -147t-352 145q-145 145 -145 351v442q0 205 145 350q145 146 350 146q206 0 352 -146t146 -350h-145q1 144 -103 248t-248 104t-249 -104q-104 -104 -105 -248v-442q0 -144 104 -248t249 -104q143 0 247 102q104 104 105 250
v57h-353v145z" />
    <glyph glyph-name="h" unicode="h" 
d="M1116 1434v-1434h-145v645h-705v-645h-143v1434h143v-646h705v646h145z" />
    <glyph glyph-name="i" unicode="i" 
d="M692 1290v-1147h424v-143h-993v143h424v1147h-424v144h993v-144h-424z" />
    <glyph glyph-name="j" unicode="j" 
d="M266 496q0 -144 104 -248t249 -104q143 0 247 102q104 104 105 250v938h145v-938q0 -204 -146 -350t-352 -146t-350 145q-145 145 -145 351h143z" />
    <glyph glyph-name="k" unicode="k" 
d="M266 0h-143v1434h143v-746l658 746h192l-467 -531l467 -903h-162l-407 786l-281 -317v-469z" />
    <glyph glyph-name="l" unicode="l" 
d="M1116 143v-143h-993v1434h143v-1291h850z" />
    <glyph glyph-name="m" unicode="m" 
d="M1116 1434v-1434h-145v930l-281 -930h-141l-283 930v-930h-143v1434h143l352 -1170l355 1170h143z" />
    <glyph glyph-name="n" unicode="n" 
d="M1116 1434v-1434h-147l-703 1159v-1159h-143v1434h147l701 -1160v1160h145z" />
    <glyph glyph-name="o" unicode="o" 
d="M971 938q0 144 -104 248t-248 104t-248 -104t-105 -248v-442q0 -144 104 -248t249 -104q143 0 247 102q104 104 105 250v442zM618 0q-205 0 -350 145t-145 351v442q0 205 145 350q145 146 350 146q206 0 352 -146t146 -350v-442q0 -205 -146 -351q-147 -145 -352 -145z
" />
    <glyph glyph-name="p" unicode="p" 
d="M266 1290v-502h455q102 0 176 74t74 177t-74 177t-176 74h-455zM266 645v-645h-143v1434h598q163 0 279 -116t116 -279t-116 -279t-279 -115h-455z" />
    <glyph glyph-name="q" unicode="q" 
d="M971 938q1 144 -103 248t-248 104t-249 -104q-104 -104 -105 -248v-442q0 -144 104 -248t248 -105q102 0 193 60l-362 362l100 103l364 -365q57 86 58 193v442zM1116 938v-442q0 -164 -98 -295l96 -99l-102 -102l-97 98q-135 -98 -297 -98q-205 0 -350 145t-145 351v442
q0 205 145 350q145 146 350 146q206 0 352 -146t146 -350z" />
    <glyph glyph-name="r" unicode="r" 
d="M266 788h455q102 0 176 74t74 177t-74 177t-176 74h-455v-502zM721 1434q163 0 279 -116t116 -264t-82 -254q-82 -105 -209 -141l291 -659h-158l-284 645h-408v-645h-143v1434h598z" />
    <glyph glyph-name="s" unicode="s" 
d="M518 0q-164 0 -280 116t-115 279h143q0 -104 74 -178t178 -74h203q102 0 176 74t74 177t-74 177t-176 74h-203q-164 0 -280 115q-116 114 -115 278q0 164 116 280t279 116h203q163 0 279 -116t116 -280h-145q0 104 -74 178t-176 74h-203q-104 0 -178 -74t-74 -176
q0 -104 74 -178t178 -74h203q163 0 279 -116t116 -278t-116 -278t-279 -116h-203z" />
    <glyph glyph-name="t" unicode="t" 
d="M1116 1290h-424v-1290h-145v1290h-424v144h993v-144z" />
    <glyph glyph-name="u" unicode="u" 
d="M618 0q-205 0 -350 145t-145 351v938h143v-938q0 -144 104 -248t249 -104q143 0 247 102q104 104 105 250v938h145v-938q0 -205 -146 -351q-147 -145 -352 -145z" />
    <glyph glyph-name="v" unicode="v" 
d="M123 1434h149l346 -1166l347 1166h151l-426 -1434h-141z" />
    <glyph glyph-name="w" unicode="w" 
d="M1116 1434v-1434h-149l-349 614l-348 -614h-147v1434h143v-1147l285 501h135l285 -501v1147h145z" />
    <glyph glyph-name="x" unicode="x" 
d="M702 717l414 -717h-168l-330 573l-329 -573h-166l414 717l-414 717h166l329 -574l330 574h168z" />
    <glyph glyph-name="y" unicode="y" 
d="M692 0h-145v608l-424 826h162l333 -650l336 650h162l-424 -826v-608z" />
    <glyph glyph-name="z" unicode="z" 
d="M1116 143v-143h-993v145l817 1145h-817v144h993v-146l-817 -1145h817z" />
    <glyph glyph-name="copyright" unicode="&#xa9;" 
d="M618 387q-100 0 -171 71t-70 171v176q0 100 70 171q71 71 171 71t172 -71t70 -171h-143q0 41 -29 69t-69 29q-41 0 -69 -29t-28 -69v-176q0 -41 29 -70t69 -29t68 29q29 29 29 70h143q0 -100 -71 -171t-171 -71zM618 1157q-145 0 -248 -103t-104 -249v-176
q0 -145 104 -249t248 -104t248 104t105 249v176q0 145 -104 249t-249 103zM1116 629q0 -205 -146 -351t-351 -145q-206 -1 -351 145t-145 351v176q0 205 145 350t351 145q205 0 351 -145t146 -350v-176z" />
    <glyph glyph-name="newGlyph" horiz-adv-x="1228" 
 />
    <glyph glyph-name="newGlyph.001" horiz-adv-x="1228" 
 />
  </font>
</defs>
</svg>
